<?xml version="1.0" encoding="utf-8"?>
<!-- Generator: Adobe Illustrator 16.0.0, SVG Export Plug-In . SVG Version: 6.00 Build 0)  -->
<!DOCTYPE svg PUBLIC "-//W3C//DTD SVG 1.1//EN" "http://www.w3.org/Graphics/SVG/1.1/DTD/svg11.dtd">
<svg version="1.1" id="Layer_1" xmlns="http://www.w3.org/2000/svg" xmlns:xlink="http://www.w3.org/1999/xlink" x="0px" y="0px"
	 width="300px" height="300px" viewBox="0 0 300 300" enable-background="new 0 0 300 300" xml:space="preserve">
<g>
	<g>
		<path fill="#010101" d="M188.703,86.809l20.758-20.76c2.443-2.449,2.562-6.59-0.247-9.404c-2.442-2.421-6.904-2.63-9.521,0
			L179.18,77.405c-2.615,2.656-2.807,6.59,0,9.403C181.986,89.621,185.893,89.621,188.703,86.809z"/>
		<path fill="#010101" d="M133.15,67.897c3.785,0,6.836-3.072,6.836-6.851V31.874c0-3.805-3.051-6.721-6.836-6.721
			c-3.784,0-6.714,2.916-6.714,6.721v29.172C126.432,64.825,129.362,67.897,133.15,67.897z"/>
		<path fill="#010101" d="M77.959,86.809c2.827,2.787,6.812,2.891,9.524,0c2.542-2.71,2.443-6.957,0-9.403L66.726,56.644
			c-2.444-2.423-6.715-2.423-9.524,0c-2.808,2.944-2.768,6.93,0,9.665L77.959,86.809z"/>
		<path fill="#010101" d="M32.418,139.685l29.304-0.363c3.785-0.053,6.715-2.944,6.715-6.722c0-3.777-2.93-6.719-6.715-6.719H32.418
			c-3.785,0.365-6.715,3.177-6.715,6.954C25.703,136.377,28.633,139.738,32.418,139.685z"/>
		<path fill="#010101" d="M266.723,185.086c-5.005-9.144-11.72-16.461-20.265-21.957c-2.075-15.525-8.342-28.653-18.683-39.567
			c-12.125-12.79-28.571-19.9-46.032-19.9h-5.007c-4.761-7.086-11.108-12.713-18.804-16.853c-7.691-4.143-15.874-6.227-24.787-6.227
			c-14.407,0-26.77,5.105-36.996,15.264c-10.163,10.106-15.261,22.349-15.261,36.753c0,5.497,2.443,13.806,7.325,25.032
			c-6.96,5.731-11.967,13.182-14.774,22.219h-2.804c-12.331,0-22.953,4.637-31.744,13.911c-8.792,9.298-13.188,20.525-13.188,33.575
			c0,11.723,3.599,21.932,10.744,30.789c7.265,8.986,16.353,14.431,27.472,16.226c2.559,0.419,4.641,0.496,5.984,0.496h117.092
			h6.961h24.787c3.297,0,5.983-0.261,7.937-0.729c13.676-1.953,25.107-8.726,34.31-20.292c8.867-11.122,13.307-24.172,13.307-38.942
			C274.293,204.259,271.729,194.255,266.723,185.086z M105.923,105.38c7.541-7.502,16.606-11.253,27.228-11.253
			c11.355,0,21,4.167,28.815,12.45c-19.169,6.487-34.553,21.985-41.514,42.016c-2.563-0.365-4.64-0.495-5.983-0.495
			c-5.251,0-10.257,0.99-15.262,3.046c-3.053-5.495-4.517-11.59-4.517-18.545C94.688,121.974,98.444,112.777,105.923,105.38z
			 M250.363,245.544c-6.961,8.674-15.628,13.78-26.129,15.368c-0.977,0.365-2.806,0.495-5.492,0.495h-24.788h-6.961H69.904
			c-0.978,0-2.809-0.234-3.663-0.234c-7.692-1.225-14.042-5-19.291-11.487c-5.252-6.458-7.814-13.908-7.814-22.35
			c0-9.403,3.019-17.478,9.158-24.042c6.195-6.616,13.675-9.897,22.345-9.897c5.251,0,10.135,1.226,14.774,3.803
			c-0.122-0.86-0.245-2.084-0.245-3.803c0-8.674,2.808-16.123,8.546-22.35c5.739-6.225,12.575-9.404,20.757-9.404
			c5.617,0,10.745,1.59,15.508,4.768c1.585-13.91,7.232-25.605,17.092-35.035c9.92-9.481,21.369-14.275,34.674-14.275
			c14.044,0,26.129,5.367,36.143,15.994c10.011,10.602,15.261,23.445,15.627,38.579c8.185,3.411,14.653,9.039,19.66,16.853
			s7.568,16.594,7.568,26.359C260.741,226.738,257.323,236.87,250.363,245.544z"/>
	</g>
</g>
</svg>
